# This file uses centimeters as units for non-parametric coordinates.

mtllib door.mtl
g default
v 19.171761 -0.195045 -0.540526
v 19.171761 -0.195045 0.605094
v 0.271375 -0.195045 0.605094
v 0.271375 -0.195045 -0.540526
v 19.171761 32.751411 -0.540524
v 0.271374 32.751411 -0.540524
v 0.271378 32.751411 0.605097
v 19.171757 32.751411 0.605097
v 19.695101 0.328295 -0.540526
v 19.695103 32.228073 -0.540524
v 19.695097 32.228073 0.605097
v 19.695101 0.328295 0.605094
v 19.171761 0.328295 1.128433
v 19.171757 32.228073 1.128436
v 0.271378 32.228073 1.128436
v 0.271375 0.328295 1.128433
v -0.251965 0.328295 0.605094
v -0.251963 32.228073 0.605097
v -0.251966 32.228073 -0.540524
v -0.251965 0.328295 -0.540526
v 19.171762 32.228073 -1.063863
v 19.171761 0.328295 -1.063866
v 0.271375 0.328295 -1.063866
v 0.271372 32.228073 -1.063863
vt 0.152196 0.999193
vt 0.150320 0.958334
vt 0.462689 0.960079
vt 0.464565 1.000938
vt 0.464389 1.001262
vt 0.152017 1.000077
vt 0.150068 0.959221
vt 0.462440 0.960407
vt 0.069194 0.292184
vt 0.065756 0.750560
vt 0.006461 0.744496
vt 0.009899 0.286119
vt 0.002086 1.000045
vt 0.002086 0.000123
vt 0.594532 0.000124
vt 0.594532 1.000045
vt 0.064663 0.292516
vt 0.061217 0.751991
vt 0.001780 0.745913
vt 0.005226 0.286437
vt 0.002061 0.000179
vt 0.002061 1.000101
vt 0.594508 1.000100
vt 0.594508 0.000179
vt 0.517461 0.415046
vt 0.517445 0.461121
vt 0.446126 0.461096
vt 0.446142 0.415021
vt 0.462465 0.960677
vt 0.464672 1.001494
vt 0.152303 0.999750
vt 0.150096 0.958933
vt 0.152683 0.999834
vt 0.150475 0.959017
vt 0.462845 0.960762
vt 0.465052 1.001579
vt 0.517453 0.553295
vt 0.517453 0.599370
vt 0.446134 0.599370
vt 0.446134 0.553295
vt 0.462082 0.960322
vt 0.464362 1.001135
vt 0.151990 0.999950
vt 0.149710 0.959137
vt 0.517461 0.461145
vt 0.517445 0.507220
vt 0.446126 0.507196
vt 0.446142 0.461121
vt 0.446134 0.507220
vt 0.517453 0.507220
vt 0.462606 0.960226
vt 0.464886 1.001039
vt 0.152514 0.999854
vt 0.150234 0.959040
vt 0.008888 0.290427
vt 0.068762 0.287077
vt 0.065324 0.745454
vt 0.005450 0.748804
vt 0.009024 0.290617
vt 0.068899 0.287267
vt 0.065461 0.745643
vt 0.005587 0.748993
vt 0.006059 0.292752
vt 0.066078 0.289394
vt 0.062632 0.748870
vt 0.002614 0.752228
vt 0.005811 0.290824
vt 0.065829 0.287466
vt 0.062383 0.746941
vt 0.002365 0.750300
vt 0.557355 0.438097
vt 0.406232 0.438045
vt 0.406232 0.576332
vt 0.557355 0.576332
vt 0.557355 0.530258
vt 0.406232 0.530257
vt 0.406232 0.484144
vt 0.557355 0.484196
vt 0.446134 0.553295
vt 0.517453 0.553295
vt 0.517453 0.553295
vt 0.446134 0.553295
vn 0.000000 -1.000000 0.000000
vn 0.000000 -1.000000 0.000000
vn 0.000000 -1.000000 0.000000
vn 0.000000 -1.000000 0.000000
vn 0.000000 1.000000 -0.000000
vn 0.000000 1.000000 -0.000000
vn 0.000000 1.000000 -0.000000
vn 0.000000 1.000000 -0.000000
vn 1.000000 0.000000 0.000002
vn 1.000000 0.000000 0.000002
vn 1.000000 0.000000 0.000002
vn 1.000000 0.000000 0.000002
vn 0.000000 -0.000000 1.000000
vn 0.000000 -0.000000 1.000000
vn 0.000000 -0.000000 1.000000
vn 0.000000 -0.000000 1.000000
vn -1.000000 0.000000 0.000001
vn -1.000000 0.000000 0.000001
vn -1.000000 0.000000 0.000001
vn -1.000000 0.000000 0.000001
vn 0.000000 0.000000 -1.000000
vn 0.000000 0.000000 -1.000000
vn 0.000000 0.000000 -1.000000
vn 0.000000 0.000000 -1.000000
vn 0.707107 -0.707107 0.000000
vn 0.707107 -0.707107 0.000000
vn 0.707107 -0.707107 0.000000
vn 0.707107 -0.707107 0.000000
vn 0.000000 -0.707106 0.707107
vn 0.000000 -0.707106 0.707107
vn 0.000000 -0.707106 0.707107
vn 0.000000 -0.707106 0.707107
vn 0.000000 -0.707107 -0.707107
vn 0.000000 -0.707107 -0.707107
vn 0.000000 -0.707107 -0.707107
vn 0.000000 -0.707107 -0.707107
vn -0.707107 -0.707107 0.000000
vn -0.707107 -0.707107 0.000000
vn -0.707107 -0.707107 0.000000
vn -0.707107 -0.707107 0.000000
vn 0.000000 0.707107 -0.707106
vn 0.000000 0.707107 -0.707106
vn 0.000000 0.707107 -0.707106
vn 0.000000 0.707107 -0.707106
vn -0.707105 0.707108 0.000002
vn -0.707105 0.707108 0.000002
vn -0.707105 0.707108 0.000002
vn -0.707105 0.707108 0.000002
vn 0.707105 0.707108 0.000001
vn 0.707105 0.707108 0.000001
vn 0.707105 0.707108 0.000001
vn 0.707105 0.707108 0.000001
vn 0.000000 0.707107 0.707107
vn 0.000000 0.707107 0.707107
vn 0.000000 0.707107 0.707107
vn 0.000000 0.707107 0.707107
vn 0.707106 -0.000000 -0.707107
vn 0.707106 -0.000000 -0.707107
vn 0.707106 -0.000000 -0.707107
vn 0.707106 -0.000000 -0.707107
vn 0.707106 0.000000 0.707108
vn 0.707106 0.000000 0.707108
vn 0.707106 0.000000 0.707108
vn 0.707106 0.000000 0.707108
vn -0.707106 -0.000000 0.707108
vn -0.707106 -0.000000 0.707108
vn -0.707106 -0.000000 0.707108
vn -0.707106 -0.000000 0.707108
vn -0.707107 0.000000 -0.707106
vn -0.707107 0.000000 -0.707106
vn -0.707107 0.000000 -0.707106
vn -0.707107 0.000000 -0.707106
vn 0.577351 -0.577349 -0.577351
vn 0.577351 -0.577349 -0.577351
vn 0.577351 -0.577349 -0.577351
vn 0.577351 -0.577347 0.577353
vn 0.577351 -0.577347 0.577353
vn 0.577351 -0.577347 0.577353
vn -0.577350 -0.577350 0.577351
vn -0.577350 -0.577350 0.577351
vn -0.577350 -0.577350 0.577351
vn -0.577350 -0.577350 -0.577350
vn -0.577350 -0.577350 -0.577350
vn -0.577350 -0.577350 -0.577350
vn 0.577348 0.577357 -0.577345
vn 0.577348 0.577357 -0.577345
vn 0.577348 0.577357 -0.577345
vn 0.577350 0.577351 0.577351
vn 0.577350 0.577351 0.577351
vn 0.577350 0.577351 0.577351
vn -0.577349 0.577352 0.577350
vn -0.577349 0.577352 0.577350
vn -0.577349 0.577352 0.577350
vn -0.577349 0.577351 -0.577350
vn -0.577349 0.577351 -0.577350
vn -0.577349 0.577351 -0.577350
s off
g Mesh
usemtl lambert2SG
f 1/1/1 2/2/2 3/3/3 4/4/4
f 7/5/5 8/6/6 5/7/7 6/8/8
f 11/9/9 12/10/10 9/11/11 10/12/12
f 15/13/13 16/14/14 13/15/15 14/16/16
f 19/17/17 20/18/18 17/19/19 18/20/20
f 23/21/21 24/22/22 21/23/23 22/24/24
f 1/25/25 9/26/26 12/27/27 2/28/28
f 16/29/29 3/30/30 2/31/31 13/32/32
f 22/33/33 1/34/34 4/35/35 23/36/36
f 20/37/37 4/38/38 3/39/39 17/40/40
f 24/41/41 6/42/42 5/43/43 21/44/44
f 6/45/45 19/46/46 18/47/47 7/48/48
f 8/79/49 11/49/50 10/50/51 5/80/52
f 7/51/53 15/52/54 14/53/55 8/54/56
f 21/55/57 10/56/58 9/57/59 22/58/60
f 11/59/61 14/60/62 13/61/63 12/62/64
f 15/63/65 18/64/66 17/65/67 16/66/68
f 19/67/69 24/68/70 23/69/71 20/70/72
f 1/25/73 22/71/74 9/26/75
f 2/28/76 12/27/77 13/72/78
f 3/39/79 16/73/80 17/40/81
f 4/38/82 20/37/83 23/74/84
f 5/81/85 10/50/86 21/75/87
f 8/82/88 14/76/89 11/49/90
f 7/48/91 18/47/92 15/77/93
f 6/45/94 24/78/95 19/46/96
